<svg xmlns="http://www.w3.org/2000/svg">

    <symbol id="logo" viewBox="0 0 130 60">
        <path
            d="M4.95672 0H0V35.7986H4.95672V22.5177C4.95672 20.2709 5.51557 18.4984 6.63326 17.2502C7.75095 16.002 9.2817 15.353 11.1769 15.353C12.8049 15.353 14.1655 15.9521 15.2589 17.1004C16.3523 18.2738 16.9112 19.7466 16.9112 21.5191V35.8236H21.8922V21.5191C21.8922 18.2238 20.9932 15.6276 19.1951 13.6804C17.3971 11.7332 15.0402 10.7596 12.1731 10.7596C11.347 10.7596 10.5209 10.8594 9.71906 11.0841C8.89294 11.3088 8.2369 11.5584 7.70235 11.833C7.16781 12.1076 6.65756 12.4072 6.1959 12.7567C5.73424 13.1062 5.41838 13.3558 5.27259 13.5056C5.1268 13.6554 5.00532 13.7552 4.95672 13.8301V0Z"
            fill="#F0145A" />
        <path d="M32.9726 0H27.8628V35.7689H32.9726V0Z" fill="white" />
        <path
            d="M63.1114 25.293L63.3669 22.7381C63.3669 19.3145 62.2428 16.453 59.9433 14.1536C57.6439 11.8541 54.7824 10.73 51.3588 10.73C47.9352 10.73 44.9715 11.9563 42.5188 14.4091C40.0661 16.8618 38.8397 19.7744 38.8397 23.2491C38.8397 26.826 40.1172 29.8919 42.621 32.4468C45.1248 35.0017 48.1396 36.2792 51.6143 36.2792C52.9429 36.2792 54.1692 36.0748 55.3956 35.7171C56.6219 35.3083 57.6439 34.8995 58.3593 34.4907C59.1258 34.0308 59.8922 33.5199 60.5565 32.9578C61.2208 32.3957 61.6807 31.9869 61.8851 31.7314C62.0895 31.4759 62.2428 31.3226 62.345 31.1693L59.0236 27.8479L58.2571 28.8188C57.7461 29.432 56.8774 30.0452 55.6511 30.7095C54.3736 31.3737 53.0451 31.6803 51.6143 31.6803C49.6215 31.6803 47.9352 31.0671 46.5045 29.7897C45.0737 28.5122 44.205 27.0304 43.9495 25.293H63.1114ZM51.3588 15.0733C53.2495 15.0733 54.7824 15.6354 56.0599 16.7085C57.2862 17.8327 58.0527 19.2123 58.3593 20.9497H44.1539C44.6138 19.2123 45.4314 17.8327 46.7089 16.7085C47.9352 15.6354 49.5193 15.0733 51.3588 15.0733Z"
            fill="white" />
        <path
            d="M86.9429 34.2863C86.9429 36.5347 86.2786 38.3742 84.899 39.805C83.5704 41.1846 81.8842 41.9 79.7891 41.9C78.8694 41.9 77.9496 41.7467 77.0809 41.4912C76.2122 41.2357 75.548 40.9291 74.9859 40.5714C74.4238 40.2137 73.9128 39.856 73.4018 39.3962C72.9419 38.9363 72.6354 38.6297 72.4821 38.4764C72.3288 38.3231 72.2266 38.1698 72.1244 38.0676L68.803 41.389L69.2118 41.9C69.4673 42.2577 69.9271 42.7176 70.5403 43.2285C71.1535 43.6884 71.8689 44.1994 72.6865 44.7104C73.504 45.1703 74.526 45.5791 75.8035 45.9368C77.0809 46.2944 78.4095 46.4988 79.7891 46.4988C83.2638 46.4988 86.1253 45.3236 88.5269 42.9731C90.8775 40.5714 92.0527 37.7099 92.0527 34.2352V11.241H86.9429V13.7959L86.0742 13.0294C85.5121 12.5184 84.6435 12.0074 83.4171 11.4965C82.1907 10.9855 80.8622 10.73 79.5336 10.73C76.4166 10.73 73.7595 11.9052 71.4601 14.3069C69.1607 16.7085 68.0365 19.57 68.0365 22.9936C68.0365 26.4172 69.1607 29.2787 71.4601 31.6803C73.7595 34.0819 76.4166 35.2572 79.5336 35.2572C80.4023 35.2572 81.2199 35.155 82.0885 34.9506C82.9061 34.6951 83.5704 34.4396 84.1325 34.1841C84.6946 33.9286 85.2055 33.622 85.6654 33.2644C86.1253 32.9067 86.483 32.6512 86.5852 32.549L86.9429 32.1913V34.2863ZM73.1463 22.9936C73.1463 20.8475 73.8106 19.059 75.1903 17.5772C76.5699 16.0953 78.2051 15.3288 80.0446 15.3288C81.8842 15.3288 83.5193 16.0953 84.899 17.5772C86.2275 19.059 86.9429 20.8475 86.9429 22.9936C86.9429 25.1397 86.2275 26.9282 84.899 28.41C83.5193 29.8919 81.8842 30.6583 80.0446 30.6583C78.2051 30.6583 76.5699 29.8919 75.1903 28.41C73.8106 26.9282 73.1463 25.1397 73.1463 22.9936Z"
            fill="white" />
        <path
            d="M118.724 35.7682V19.9277C118.724 17.3217 117.753 15.1244 115.863 13.3871C113.972 11.5987 111.519 10.73 108.504 10.73C107.329 10.73 106.154 10.8833 105.03 11.1899C103.906 11.5476 102.986 11.9052 102.321 12.314C101.657 12.7228 100.993 13.1827 100.38 13.7448C99.7666 14.2558 99.4089 14.6135 99.2045 14.8179C99.0512 15.0222 98.8979 15.1755 98.7957 15.3288L102.117 18.6502L102.781 17.7816C103.19 17.2195 103.906 16.7085 104.979 16.1464C106.052 15.5843 107.227 15.3288 108.504 15.3288C109.986 15.3288 111.213 15.7887 112.183 16.6574C113.154 17.5261 113.614 18.6502 113.614 19.9277L104.672 21.4606C102.475 21.8183 100.686 22.687 99.46 24.0667C98.1825 25.4463 97.5182 27.1326 97.5182 29.1254C97.5182 31.016 98.3358 32.6512 99.971 34.0819C101.657 35.5638 103.701 36.2792 106.205 36.2792C107.074 36.2792 107.891 36.177 108.709 35.9215C109.577 35.7171 110.242 35.4616 110.804 35.2061C111.366 34.9506 111.877 34.644 112.337 34.2863C112.797 33.9287 113.103 33.6732 113.308 33.571C113.461 33.4177 113.563 33.2644 113.614 33.2133V35.7682H118.724ZM106.971 31.6803C105.643 31.6803 104.57 31.3737 103.803 30.7606C102.986 30.1474 102.628 29.432 102.628 28.6144C102.628 27.7457 102.884 26.9793 103.446 26.4172C104.008 25.8551 104.774 25.4463 105.694 25.293L113.614 24.0156V24.5265C113.614 26.826 113.052 28.5633 111.877 29.8408C110.702 31.0671 109.066 31.6803 106.971 31.6803Z"
            fill="white" />
        <path d="M130 0H124.89V35.7689H130V0Z" fill="white" />
        <path d="M0 53.1185H1.59915V58.7253H5.06396V60.0283H0V53.1185Z" fill="white" />
        <path
            d="M15.5016 58.5477H12.2934L11.6814 60.0283H10.0428L13.1226 53.1185H14.702L17.7917 60.0283H16.1136L15.5016 58.5477ZM14.9982 57.3335L13.9025 54.688L12.8067 57.3335H14.9982Z"
            fill="white" />
        <path
            d="M33.5121 53.1185L31.2516 60.0283H29.534L28.0138 55.3494L26.4443 60.0283H24.7366L22.4662 53.1185H24.1245L25.6842 57.9751L27.313 53.1185H28.7937L30.3731 58.0146L31.9821 53.1185H33.5121Z"
            fill="white" />
        <path
            d="M50.5232 60.1468C49.819 60.1468 49.1807 59.9954 48.6082 59.6927C48.0422 59.3834 47.5947 58.959 47.2657 58.4193C46.9432 57.8731 46.782 57.2578 46.782 56.5734C46.782 55.889 46.9432 55.277 47.2657 54.7373C47.5947 54.1911 48.0422 53.7667 48.6082 53.464C49.1807 53.1547 49.8223 53 50.5331 53C51.1319 53 51.6716 53.1053 52.152 53.3159C52.6389 53.5265 53.047 53.8292 53.376 54.224L52.3494 55.1717C51.8821 54.6321 51.303 54.3622 50.612 54.3622C50.1843 54.3622 49.8026 54.4577 49.467 54.6485C49.1313 54.8328 48.8681 55.0927 48.6773 55.4283C48.493 55.764 48.4009 56.1456 48.4009 56.5734C48.4009 57.0012 48.493 57.3828 48.6773 57.7185C48.8681 58.0541 49.1313 58.3173 49.467 58.5082C49.8026 58.6924 50.1843 58.7846 50.612 58.7846C51.303 58.7846 51.8821 58.5115 52.3494 57.9653L53.376 58.9129C53.047 59.3143 52.6389 59.6203 52.152 59.8309C51.665 60.0415 51.1221 60.1468 50.5232 60.1468Z"
            fill="white" />
        <path
            d="M62.5933 60.1468C61.876 60.1468 61.2278 59.9922 60.6487 59.6829C60.0761 59.3736 59.6253 58.9491 59.2963 58.4095C58.9738 57.8632 58.8126 57.2512 58.8126 56.5734C58.8126 55.8956 58.9738 55.2868 59.2963 54.7472C59.6253 54.201 60.0761 53.7733 60.6487 53.464C61.2278 53.1547 61.876 53 62.5933 53C63.3106 53 63.9555 53.1547 64.5281 53.464C65.1006 53.7733 65.5514 54.201 65.8804 54.7472C66.2095 55.2868 66.374 55.8956 66.374 56.5734C66.374 57.2512 66.2095 57.8632 65.8804 58.4095C65.5514 58.9491 65.1006 59.3736 64.5281 59.6829C63.9555 59.9922 63.3106 60.1468 62.5933 60.1468ZM62.5933 58.7846C63.0013 58.7846 63.3698 58.6924 63.6989 58.5082C64.0279 58.3173 64.2846 58.0541 64.4688 57.7185C64.6597 57.3828 64.7551 57.0012 64.7551 56.5734C64.7551 56.1456 64.6597 55.764 64.4688 55.4283C64.2846 55.0927 64.0279 54.8328 63.6989 54.6485C63.3698 54.4577 63.0013 54.3622 62.5933 54.3622C62.1853 54.3622 61.8168 54.4577 61.4877 54.6485C61.1587 54.8328 60.8987 55.0927 60.7079 55.4283C60.5236 55.764 60.4315 56.1456 60.4315 56.5734C60.4315 57.0012 60.5236 57.3828 60.7079 57.7185C60.8987 58.0541 61.1587 58.3173 61.4877 58.5082C61.8168 58.6924 62.1853 58.7846 62.5933 58.7846Z"
            fill="white" />
        <path
            d="M78.7995 60.0283L78.7896 55.8824L76.7561 59.2979H76.0355L74.0119 55.9713V60.0283H72.5115V53.1185H73.8342L76.4205 57.4125L78.9673 53.1185H80.2802L80.2999 60.0283H78.7995Z"
            fill="white" />
        <path
            d="M89.8659 53.1185C90.478 53.1185 91.0077 53.2205 91.4552 53.4245C91.9093 53.6285 92.2581 53.918 92.5016 54.2931C92.7451 54.6682 92.8668 55.1125 92.8668 55.6258C92.8668 56.1325 92.7451 56.5767 92.5016 56.9584C92.2581 57.3335 91.9093 57.623 91.4552 57.8271C91.0077 58.0245 90.478 58.1232 89.8659 58.1232H88.4741V60.0283H86.8749V53.1185H89.8659ZM89.7771 56.8202C90.2575 56.8202 90.6227 56.7182 90.8728 56.5142C91.1229 56.3036 91.2479 56.0074 91.2479 55.6258C91.2479 55.2375 91.1229 54.9414 90.8728 54.7373C90.6227 54.5268 90.2575 54.4215 89.7771 54.4215H88.4741V56.8202H89.7771Z"
            fill="white" />
        <path
            d="M103.148 58.5477H99.9396L99.3276 60.0283H97.6889L100.769 53.1185H102.348L105.438 60.0283H103.76L103.148 58.5477ZM102.644 57.3335L101.549 54.688L100.453 57.3335H102.644Z"
            fill="white" />
        <path
            d="M117.428 53.1185V60.0283H116.115L112.67 55.8331V60.0283H111.09V53.1185H112.413L115.848 57.3137V53.1185H117.428Z"
            fill="white" />
        <path
            d="M127.315 57.5803V60.0283H125.716V57.5605L123.041 53.1185H124.739L126.585 56.1884L128.43 53.1185H130L127.315 57.5803Z"
            fill="white" />
    </symbol>

    <symbol id="logo1" viewBox="0 0 70 33" fill="none">
        <path
            d="M2.64358 0H0V19.0926H2.64358V12.0094C2.64358 10.8111 2.94163 9.86583 3.53774 9.20012C4.13384 8.53441 4.95024 8.18824 5.96102 8.18824C6.82926 8.18824 7.55495 8.50778 8.13809 9.12024C8.72123 9.74601 9.01929 10.5315 9.01929 11.4769V19.1059H11.6758V11.4769C11.6758 9.71938 11.1964 8.3347 10.2374 7.29619C9.27846 6.25768 8.02146 5.73843 6.49233 5.73843C6.05173 5.73843 5.61114 5.79168 5.1835 5.91151C4.7429 6.03134 4.39301 6.16448 4.10792 6.31094C3.82283 6.45739 3.5507 6.61717 3.30448 6.80356C3.05826 6.98996 2.8898 7.12311 2.81205 7.20299C2.73429 7.28288 2.6695 7.33613 2.64358 7.37608V0Z"
            fill="#F0145A" />
        <path d="M17.5856 0H14.8604V19.0767H17.5856V0Z" fill="white" />
        <path
            d="M33.6598 13.4896L33.796 12.127C33.796 10.3011 33.1965 8.77493 31.9701 7.54857C30.7438 6.32221 29.2176 5.72266 27.3917 5.72266C25.5658 5.72266 23.9851 6.37672 22.677 7.68483C21.3689 8.99295 20.7148 10.5463 20.7148 12.3995C20.7148 14.3072 21.3962 15.9423 22.7315 17.305C24.0669 18.6676 25.6748 19.3489 27.528 19.3489C28.2365 19.3489 28.8906 19.2399 29.5446 19.0491C30.1987 18.8311 30.7438 18.6131 31.1253 18.3951C31.5341 18.1498 31.9429 17.8773 32.2971 17.5775C32.6514 17.2777 32.8967 17.0597 33.0057 16.9234C33.1147 16.7872 33.1965 16.7054 33.251 16.6236L31.4796 14.8522L31.0708 15.37C30.7983 15.6971 30.335 16.0241 29.6809 16.3784C28.9996 16.7327 28.291 16.8962 27.528 16.8962C26.4651 16.8962 25.5658 16.5691 24.8027 15.8878C24.0396 15.2065 23.5764 14.4162 23.4401 13.4896H33.6598ZM27.3917 8.03912C28.4 8.03912 29.2176 8.33889 29.8989 8.9112C30.553 9.51075 30.9618 10.2466 31.1253 11.1732H23.5491C23.7944 10.2466 24.2304 9.51075 24.9117 8.9112C25.5658 8.33889 26.4106 8.03912 27.3917 8.03912Z"
            fill="white" />
        <path
            d="M46.3695 18.286C46.3695 19.4852 46.0153 20.4662 45.2794 21.2293C44.5709 21.9651 43.6715 22.3467 42.5542 22.3467C42.0637 22.3467 41.5731 22.2649 41.1098 22.1286C40.6465 21.9924 40.2922 21.8289 39.9925 21.6381C39.6927 21.4473 39.4202 21.2566 39.1476 21.0113C38.9024 20.766 38.7389 20.6025 38.6571 20.5207C38.5753 20.439 38.5208 20.3572 38.4663 20.3027L36.6949 22.0741L36.9129 22.3467C37.0492 22.5374 37.2945 22.7827 37.6215 23.0552C37.9485 23.3005 38.3301 23.573 38.7661 23.8455C39.2021 24.0908 39.7472 24.3088 40.4285 24.4996C41.1098 24.6904 41.8184 24.7994 42.5542 24.7994C44.4074 24.7994 45.9335 24.1726 47.2144 22.919C48.468 21.6381 49.0948 20.112 49.0948 18.2588V5.99518H46.3695V7.3578L45.9062 6.94902C45.6065 6.67649 45.1432 6.40397 44.4891 6.13144C43.8351 5.85892 43.1265 5.72266 42.4179 5.72266C40.7555 5.72266 39.3384 6.34946 38.112 7.63033C36.8857 8.9112 36.2861 10.4373 36.2861 12.2632C36.2861 14.0892 36.8857 15.6153 38.112 16.8962C39.3384 18.177 40.7555 18.8038 42.4179 18.8038C42.8812 18.8038 43.3173 18.7493 43.7806 18.6403C44.2166 18.5041 44.5709 18.3678 44.8707 18.2315C45.1704 18.0953 45.443 17.9318 45.6882 17.741C45.9335 17.5502 46.1243 17.414 46.1788 17.3595L46.3695 17.1687V18.286ZM39.0114 12.2632C39.0114 11.1186 39.3657 10.1648 40.1015 9.37449C40.8373 8.58417 41.7094 8.17538 42.6905 8.17538C43.6715 8.17538 44.5436 8.58417 45.2794 9.37449C45.988 10.1648 46.3695 11.1186 46.3695 12.2632C46.3695 13.4079 45.988 14.3617 45.2794 15.152C44.5436 15.9423 43.6715 16.3511 42.6905 16.3511C41.7094 16.3511 40.8373 15.9423 40.1015 15.152C39.3657 14.3617 39.0114 13.4079 39.0114 12.2632Z"
            fill="white" />
        <path
            d="M63.3195 19.0764V10.6281C63.3195 9.23823 62.8017 8.06637 61.7934 7.13979C60.7851 6.18595 59.4769 5.72266 57.869 5.72266C57.2422 5.72266 56.6154 5.80441 56.0159 5.96793C55.4163 6.1587 54.9258 6.34946 54.5715 6.56748C54.2172 6.7855 53.8629 7.03078 53.5359 7.33055C53.2089 7.60308 53.0181 7.79384 52.9091 7.90285C52.8273 8.01186 52.7456 8.09362 52.6911 8.17538L54.4625 9.94679L54.8168 9.4835C55.0348 9.18372 55.4163 8.9112 55.9886 8.61142C56.5609 8.31164 57.1877 8.17538 57.869 8.17538C58.6594 8.17538 59.3134 8.42065 59.8312 8.88394C60.349 9.34724 60.5943 9.94679 60.5943 10.6281L55.8251 11.4457C54.6533 11.6364 53.6994 12.0997 53.0454 12.8356C52.364 13.5714 52.0098 14.4707 52.0098 15.5335C52.0098 16.5419 52.4458 17.414 53.3179 18.177C54.2172 18.9674 55.3073 19.3489 56.6427 19.3489C57.106 19.3489 57.542 19.2944 57.9781 19.1581C58.4413 19.0491 58.7956 18.9129 59.0954 18.7766C59.3952 18.6403 59.6677 18.4768 59.913 18.286C60.1582 18.0953 60.3218 17.959 60.4308 17.9045C60.5125 17.8228 60.567 17.741 60.5943 17.7137V19.0764H63.3195ZM57.0515 16.8962C56.3429 16.8962 55.7706 16.7327 55.3618 16.4056C54.9258 16.0786 54.735 15.6971 54.735 15.261C54.735 14.7977 54.8713 14.3889 55.1711 14.0892C55.4708 13.7894 55.8796 13.5714 56.3702 13.4896L60.5943 12.8083V13.0808C60.5943 14.3072 60.2945 15.2338 59.6677 15.9151C59.0409 16.5691 58.1688 16.8962 57.0515 16.8962Z"
            fill="white" />
        <path d="M69.3337 0H66.6084V19.0767H69.3337V0Z" fill="white" />
        <path d="M0 28.3308H0.852878V31.3211H2.70078V32.016H0V28.3308Z" fill="white" />
        <path
            d="M8.26752 31.2263H6.5565L6.23009 32.016H5.35615L6.99873 28.3308H7.84108L9.48893 32.016H8.59393L8.26752 31.2263ZM7.99902 30.5788L7.41464 29.1678L6.83026 30.5788H7.99902Z"
            fill="white" />
        <path
            d="M17.8731 28.3308L16.6675 32.016H15.7515L14.9407 29.5206L14.1036 32.016H13.1928L11.982 28.3308H12.8664L13.6982 30.921L14.5669 28.3308H15.3566L16.199 30.942L17.0571 28.3308H17.8731Z"
            fill="white" />
        <path
            d="M26.9457 32.0792C26.5702 32.0792 26.2297 31.9985 25.9244 31.837C25.6225 31.6721 25.3838 31.4457 25.2084 31.1579C25.0364 30.8666 24.9504 30.5384 24.9504 30.1734C24.9504 29.8084 25.0364 29.482 25.2084 29.1942C25.3838 28.9028 25.6225 28.6765 25.9244 28.515C26.2297 28.3501 26.5719 28.2676 26.951 28.2676C27.2704 28.2676 27.5582 28.3237 27.8144 28.436C28.0741 28.5484 28.2917 28.7098 28.4672 28.9204L27.9197 29.4258C27.6705 29.138 27.3616 28.9941 26.9931 28.9941C26.7649 28.9941 26.5614 29.045 26.3824 29.1468C26.2034 29.2451 26.063 29.3837 25.9612 29.5627C25.8629 29.7417 25.8138 29.9453 25.8138 30.1734C25.8138 30.4015 25.8629 30.6051 25.9612 30.7841C26.063 30.9631 26.2034 31.1035 26.3824 31.2053C26.5614 31.3035 26.7649 31.3527 26.9931 31.3527C27.3616 31.3527 27.6705 31.207 27.9197 30.9157L28.4672 31.4211C28.2917 31.6352 28.0741 31.7984 27.8144 31.9107C27.5547 32.0231 27.2651 32.0792 26.9457 32.0792Z"
            fill="white" />
        <path
            d="M33.3831 32.0792C33.0005 32.0792 32.6548 31.9967 32.3459 31.8318C32.0406 31.6668 31.8002 31.4404 31.6247 31.1526C31.4527 30.8613 31.3667 30.5349 31.3667 30.1734C31.3667 29.8119 31.4527 29.4872 31.6247 29.1994C31.8002 28.9081 32.0406 28.68 32.3459 28.515C32.6548 28.3501 33.0005 28.2676 33.3831 28.2676C33.7657 28.2676 34.1096 28.3501 34.415 28.515C34.7203 28.68 34.9607 28.9081 35.1362 29.1994C35.3117 29.4872 35.3995 29.8119 35.3995 30.1734C35.3995 30.5349 35.3117 30.8613 35.1362 31.1526C34.9607 31.4404 34.7203 31.6668 34.415 31.8318C34.1096 31.9967 33.7657 32.0792 33.3831 32.0792ZM33.3831 31.3527C33.6007 31.3527 33.7972 31.3035 33.9727 31.2053C34.1482 31.1035 34.2851 30.9631 34.3834 30.7841C34.4852 30.6051 34.5361 30.4015 34.5361 30.1734C34.5361 29.9453 34.4852 29.7417 34.3834 29.5627C34.2851 29.3837 34.1482 29.2451 33.9727 29.1468C33.7972 29.045 33.6007 28.9941 33.3831 28.9941C33.1655 28.9941 32.9689 29.045 32.7934 29.1468C32.618 29.2451 32.4793 29.3837 32.3775 29.5627C32.2793 29.7417 32.2301 29.9453 32.2301 30.1734C32.2301 30.4015 32.2793 30.6051 32.3775 30.7841C32.4793 30.9631 32.618 31.1035 32.7934 31.2053C32.9689 31.3035 33.1655 31.3527 33.3831 31.3527Z"
            fill="white" />
        <path
            d="M42.0264 32.016L42.0211 29.8049L40.9366 31.6264H40.5523L39.473 29.8522V32.016H38.6728V28.3308H39.3782L40.7576 30.6209L42.1159 28.3308H42.8161L42.8266 32.016H42.0264Z"
            fill="white" />
        <path
            d="M47.9285 28.3308C48.2549 28.3308 48.5374 28.3852 48.7761 28.494C49.0183 28.6028 49.2043 28.7572 49.3342 28.9573C49.464 29.1573 49.529 29.3942 49.529 29.668C49.529 29.9382 49.464 30.1751 49.3342 30.3787C49.2043 30.5788 49.0183 30.7332 48.7761 30.842C48.5374 30.9473 48.2549 30.9999 47.9285 30.9999H47.1862V32.016H46.3333V28.3308H47.9285ZM47.8811 30.305C48.1373 30.305 48.3321 30.2506 48.4655 30.1418C48.5989 30.0295 48.6656 29.8716 48.6656 29.668C48.6656 29.4609 48.5989 29.303 48.4655 29.1942C48.3321 29.0818 48.1373 29.0257 47.8811 29.0257H47.1862V30.305H47.8811Z"
            fill="white" />
        <path
            d="M55.0121 31.2263H53.3011L52.9747 32.016H52.1008L53.7433 28.3308H54.5857L56.2335 32.016H55.3385L55.0121 31.2263ZM54.7436 30.5788L54.1592 29.1678L53.5749 30.5788H54.7436Z"
            fill="white" />
        <path
            d="M62.6281 28.3308V32.016H61.9279L60.0906 29.7785V32.016H59.2482V28.3308H59.9537L61.7858 30.5682V28.3308H62.6281Z"
            fill="white" />
        <path
            d="M67.9013 30.7104V32.016H67.0485V30.6999L65.6217 28.3308H66.5273L67.5117 29.9681L68.4963 28.3308H69.3333L67.9013 30.7104Z"
            fill="white" />
    </symbol>



 <symbol id="scroll"  viewBox="0 0 42 42" fill="none" >
<g clip-path="url(#clip0_22728_11339)">
<circle opacity="0.5" cx="21" cy="21" r="20" stroke="white" stroke-width="2"/>
<path d="M12 18L21 27L30 18" stroke="white" stroke-width="2"/>
</g>
<defs>
<clipPath id="clip0_22728_11339">
<rect width="42" height="42" fill="white"/>
</clipPath>
</defs>
</symbol>

    <symbol id="symbol" viewBox="0 0 697 799" fill="none">
        <g clip-path="url(#clip0_22728_11332)">
            <path fill-rule="evenodd" clip-rule="evenodd"
                d="M245.112 340H432.082C485.793 340 530.618 362.912 558.49 401.63C586.34 440.35 587.199 504.956 570.958 555.498L550.194 620.023C541.522 646.966 500.918 774.384 493 799H391C391 799 392.559 800.366 477.767 535.5C485.29 512.126 489.586 474.185 477.767 457.777C465.968 441.37 446.06 431.66 419.718 431.66H266.886C236.876 431.66 210.283 451.178 200.999 480.005L245.112 340Z"
                fill="url(#paint0_linear_22728_11332)" />
            <path fill-rule="evenodd" clip-rule="evenodd"
                d="M99.3445 799H-0.369385C84.4982 532.509 170.329 266.331 255.698 0H355.276C354.856 1.33198 354.431 2.6675 353.999 4.00646C215.866 429.03 262.985 285.497 99.3445 799Z"
                fill="#F0145A" />
        </g>
        <defs>
            <linearGradient id="paint0_linear_22728_11332" x1="521.823" y1="798.999" x2="268.503"
                y2="516.696" gradientUnits="userSpaceOnUse">
                <stop stop-color="#F0145A" />
                <stop offset="1" stop-color="#693264" />
            </linearGradient>
            <clipPath id="clip0_22728_11332">
                <rect width="697" height="799" fill="white" />
            </clipPath>
        </defs>
    </symbol>

    <symbol id="fb" viewBox="0 0 24 25">
        <g clip-path="url(#clip0_160016_2563)">
            <path
                d="M24 12.5733C24 5.90541 18.6274 0.5 12 0.5C5.37258 0.5 0 5.90541 0 12.5733C0 18.5995 4.38823 23.5943 10.125 24.5V16.0633H7.07813V12.5733H10.125V9.91343C10.125 6.88755 11.9165 5.21615 14.6576 5.21615C15.9705 5.21615 17.3438 5.45195 17.3438 5.45195V8.42313H15.8306C14.3399 8.42313 13.875 9.35379 13.875 10.3086V12.5733H17.2031L16.6711 16.0633H13.875V24.5C19.6118 23.5943 24 18.5995 24 12.5733Z"
                fill="currentColor" />
        </g>
        <defs>
            <clipPath id="clip0_160016_2563">
                <rect width="24" height="24" fill="white" transform="translate(0 0.5)" />
            </clipPath>
        </defs>
    </symbol>

    <symbol id="fbfoot" viewBox="0 0 38 38" fill="none">
        <g clip-path="url(#clip0_22721_6812)">
            <path
                d="M38 19.1161C38 8.55857 29.4934 0 19 0C8.50658 0 0 8.55857 0 19.1161C0 28.6575 6.94803 36.5659 16.0312 38V24.6419H11.207V19.1161H16.0312V14.9046C16.0312 10.1136 18.8678 7.46723 23.2078 7.46723C25.2866 7.46723 27.4609 7.84059 27.4609 7.84059V12.545H25.0651C22.7048 12.545 21.9688 14.0185 21.9688 15.5302V19.1161H27.2383L26.3959 24.6419H21.9688V38C31.052 36.5659 38 28.6575 38 19.1161Z" />
        </g>
        <defs>
            <clipPath id="clip0_22721_6812">
                <rect width="38" height="38" fill="white" />
            </clipPath>
        </defs>
    </symbol>

    <symbol id="ecommerce" viewBox="0 0 64 64" fill="none">
        <path
            d="M23.7339 28.125C24.8379 28.125 25.7339 27.229 25.7339 26.125V18.325C25.7339 14.838 28.5709 12 32.0579 12C35.5449 12 38.3829 14.838 38.3829 18.325V26.125C38.3829 27.229 39.2779 28.125 40.3829 28.125C41.4869 28.125 42.3829 27.229 42.3829 26.125V18.325C42.3839 12.632 37.7519 8 32.0579 8C26.3659 8 21.7339 12.632 21.7339 18.325V26.125C21.7339 27.229 22.6299 28.125 23.7339 28.125Z"
            fill="url(#paint0_linear_22728_11656)" />
        <path
            d="M55 23.6309H44.384V26.1249C44.384 28.3309 42.59 30.1249 40.384 30.1249C38.178 30.1249 36.384 28.3309 36.384 26.1249V23.6309H27.735V26.1249C27.735 28.3309 25.941 30.1249 23.735 30.1249C21.529 30.1249 19.735 28.3309 19.735 26.1249V23.6309H8.99997C8.44797 23.6309 8.10697 24.0659 8.23797 24.6019L15.236 53.0989C15.658 54.7009 17.344 55.9999 19 55.9999H45C46.658 55.9999 48.342 54.7009 48.766 53.0989L55.762 24.6019C55.893 24.0649 55.553 23.6309 55 23.6309Z"
            fill="url(#paint1_linear_22728_11656)" />
        <path
            d="M28.6001 34.4C28.6001 33.6265 29.2266 33 30.0001 33C30.7736 33 31.4001 33.6265 31.4001 34.4V41.35L31.4001 40C31.4001 39.2265 32.0266 38.6 32.8001 38.6C33.5736 38.6 34.2001 39.2265 34.2001 40V41.6764C34.2127 40.9141 34.8346 39.3 35.6 39.3C36.3731 39.3 36.9999 39.9268 37 40.7C37 40.7 37.0411 41.7411 37.1332 41.8033C37.3572 41.3285 37.8402 40 38.4 40C39.1732 40 39.8 40.6268 39.8 41.4V48.4C39.8 49.9463 38.5463 51.2 37 51.2H32.3198C30.8344 51.2 29.4099 50.6099 28.3599 49.5599L26.15 47.35L23 45.9402C23.0051 44.6033 24.0526 44.2 25.1 44.2C26.0023 44.2 26.8136 44.3407 28.6 45.25L28.6001 34.4Z"
            fill="white" />
        <defs>
            <linearGradient id="paint0_linear_22728_11656" x1="32.0584" y1="8" x2="32.0584"
                y2="28.125" gradientUnits="userSpaceOnUse">
                <stop stop-color="#EF8080" />
                <stop offset="1" stop-color="#F0145A" />
            </linearGradient>
            <linearGradient id="paint1_linear_22728_11656" x1="32" y1="23.6309" x2="32" y2="55.9999"
                gradientUnits="userSpaceOnUse">
                <stop stop-color="#EF8080" />
                <stop offset="1" stop-color="#F0145A" />
            </linearGradient>
        </defs>
    </symbol>

    <symbol id="support" viewBox="0 0 65 64" fill="none">
        <path fill-rule="evenodd" clip-rule="evenodd"
            d="M53.7847 35.0762V52.3713C53.7847 55.4647 51.3604 57.9997 48.3966 57.9997H16.3036C13.3398 57.9997 10.9155 55.4647 10.9155 52.3713V35.0762H27.5816V42.587L32.3501 45.7204L37.1186 42.587V35.0762H53.7847Z"
            fill="url(#paint0_linear_22728_11662)" />
        <path fill-rule="evenodd" clip-rule="evenodd"
            d="M29.252 35.0762V41.6847L32.35 43.7202L35.4481 41.6847V35.0762H29.252Z"
            fill="url(#paint1_linear_22728_11662)" />
        <path fill-rule="evenodd" clip-rule="evenodd"
            d="M12.4072 15.1426H52.2937C54.1761 15.1426 55.7145 16.8507 55.7145 18.938V29.1912C55.7145 31.2786 54.1761 32.9867 52.2937 32.9867H36.6477H28.0532H12.4072C10.5248 32.9867 8.98633 31.2786 8.98633 29.1912V18.938C8.98633 16.8507 10.5248 15.1426 12.4072 15.1426Z"
            fill="url(#paint2_linear_22728_11662)" />
        <path fill-rule="evenodd" clip-rule="evenodd"
            d="M24.0452 5.95508H40.6548C42.1979 5.95508 43.4607 7.21788 43.4607 8.76103V13.1384H39.9032V10.5516C39.9032 9.8542 39.3331 9.2817 38.6357 9.2817H26.0643C25.3669 9.2817 24.7968 9.8542 24.7968 10.5516V13.1384H21.2393V8.76103C21.2393 7.21788 22.5021 5.95508 24.0452 5.95508Z"
            fill="url(#paint3_linear_22728_11662)" />
        <defs>
            <linearGradient id="paint0_linear_22728_11662" x1="32.3501" y1="35.0762" x2="32.3501"
                y2="57.9997" gradientUnits="userSpaceOnUse">
                <stop stop-color="#EF8080" />
                <stop offset="1" stop-color="#F0145A" />
            </linearGradient>
            <linearGradient id="paint1_linear_22728_11662" x1="32.35" y1="35.0762" x2="32.35"
                y2="43.7202" gradientUnits="userSpaceOnUse">
                <stop stop-color="#EF8080" />
                <stop offset="1" stop-color="#F0145A" />
            </linearGradient>
            <linearGradient id="paint2_linear_22728_11662" x1="32.3504" y1="15.1426" x2="32.3504"
                y2="32.9867" gradientUnits="userSpaceOnUse">
                <stop stop-color="#EF8080" />
                <stop offset="1" stop-color="#F0145A" />
            </linearGradient>
            <linearGradient id="paint3_linear_22728_11662" x1="32.35" y1="5.95508" x2="32.35"
                y2="13.1384" gradientUnits="userSpaceOnUse">
                <stop stop-color="#EF8080" />
                <stop offset="1" stop-color="#F0145A" />
            </linearGradient>
        </defs>
    </symbol>

    <symbol id="corporate" viewBox="0 0 65 64" fill="none">
        <g clip-path="url(#clip0_22728_11668)">
            <path
                d="M61.1927 37.7273C60.5052 37.4426 59.7815 37.2982 59.0416 37.2982C57.4099 37.2982 55.9026 37.9946 54.856 39.1615L53.636 38.6562L50.1559 37.2147C50.6498 35.5616 50.9163 33.8113 50.9163 31.9998C50.9163 30.1883 50.6496 28.4381 50.1559 26.7849L53.636 25.3435L54.856 24.8381C55.9026 26.0051 57.4099 26.7014 59.0416 26.7014C59.7815 26.7014 60.5052 26.5571 61.1927 26.2722C64.0581 25.0852 65.4239 21.7883 64.2369 18.9227C63.3629 16.8128 61.3224 15.4493 59.0386 15.4493C58.2987 15.4493 57.575 15.5937 56.8875 15.8786C54.6292 16.814 53.3038 19.0598 53.4238 21.3722L52.1966 21.8805L48.7176 23.3215C47.0275 20.208 44.458 17.6383 41.3445 15.9483L42.7855 12.4694L43.2933 11.2436C43.3916 11.2487 43.4903 11.2517 43.5893 11.2517C45.8731 11.2517 47.9135 9.88836 48.7876 7.77836C49.9745 4.91287 48.6089 1.61587 45.7434 0.428874C45.0558 0.144375 44.3321 0 43.5923 0C41.3084 0 39.268 1.36337 38.3939 3.47337C37.4585 5.73161 38.1093 8.25698 39.8293 9.80723L39.3228 11.0301L37.8813 14.5102C36.2282 14.0165 34.4779 13.7498 32.6664 13.7498C30.8549 13.7498 29.1047 14.0165 27.4516 14.5102L26.0101 11.0301L25.5036 9.80723C27.2236 8.25698 27.8743 5.73161 26.9389 3.47324C26.0648 1.36337 24.0242 0 21.7404 0C21.0006 0 20.2768 0.144375 19.5893 0.429249C16.7239 1.61625 15.3582 4.91312 16.5452 7.77874C17.4192 9.88861 19.4597 11.2521 21.7434 11.2521C21.8424 11.2521 21.9411 11.2491 22.0394 11.244L22.5472 12.4697L23.9882 15.9487C20.8747 17.6388 18.3051 20.2083 16.6151 23.3218L13.1361 21.8808L11.909 21.3726C12.029 19.0602 10.7035 16.8143 8.44521 15.8788C7.75771 15.5941 7.03396 15.4497 6.29409 15.4497C4.01022 15.4497 1.96985 16.8131 1.09573 18.9231C-0.091147 21.7886 1.27448 25.0856 4.13997 26.2726C4.82747 26.5573 5.55122 26.7017 6.29109 26.7017C7.92284 26.7017 9.43009 26.0053 10.4767 24.8383L11.6967 25.3437L15.1768 26.7852C14.683 28.4383 14.4165 30.1886 14.4165 32.0001C14.4165 33.8116 14.6831 35.5618 15.1768 37.2149L11.6966 38.6562L10.4766 39.1615C9.42996 37.9946 7.92271 37.2982 6.29097 37.2982C5.55109 37.2982 4.82734 37.4426 4.13985 37.7274C1.27448 38.9144 -0.0912721 42.2113 1.09573 45.0769C1.96972 47.1868 4.01022 48.5503 6.29397 48.5503C7.03384 48.5503 7.75759 48.4059 8.44509 48.121C10.7033 47.1857 12.0288 44.9398 11.9088 42.6274L13.136 42.1192L16.6149 40.6782C18.3051 43.7917 20.8746 46.3613 23.9881 48.0513L22.5471 51.5303L22.0393 52.756C21.9409 52.7509 21.8423 52.7479 21.7433 52.7479C19.4594 52.7479 17.4191 54.1113 16.5449 56.2213C15.3581 59.0868 16.7237 62.3838 19.5892 63.5708C20.2767 63.8555 21.0004 63.9999 21.7403 63.9999C24.0242 63.9999 26.0646 62.6365 26.9387 60.5265C27.8741 58.2683 27.2233 55.7429 25.5033 54.1926L26.0098 52.9698L27.4513 49.4897C29.1044 49.9834 30.8547 50.25 32.6662 50.25C34.4777 50.25 36.2279 49.9834 37.881 49.4897L39.3225 52.9698L39.829 54.1926C38.109 55.7429 37.4583 58.2683 38.3937 60.5266C39.2677 62.6365 41.3082 64 43.5919 64C44.3318 64 45.0555 63.8556 45.743 63.5708C48.6084 62.3838 49.9741 59.0869 48.7871 56.2213C47.9131 54.1114 45.8726 52.7479 43.5889 52.7479C43.4899 52.7479 43.3913 52.7509 43.2929 52.756L42.7851 51.5303L41.3442 48.0513C44.4576 46.3612 47.0273 43.7917 48.7173 40.6782L52.1963 42.1192L53.4234 42.6274C53.3034 44.9398 54.6289 47.1857 56.8871 48.1212C57.5746 48.4059 58.2984 48.5503 59.0382 48.5503C61.3221 48.5503 63.3625 47.1869 64.2366 45.0769C65.4239 42.2113 64.0584 38.9143 61.1927 37.7273ZM32.6664 46.4998C24.6712 46.4998 18.1664 39.995 18.1664 31.9998C18.1664 24.0046 24.6712 17.4998 32.6664 17.4998C40.6617 17.4998 47.1664 24.0046 47.1664 31.9998C47.1664 39.995 40.6615 46.4998 32.6664 46.4998Z"
                fill="black" />
            <path
                d="M61.1927 37.7273C60.5052 37.4426 59.7815 37.2982 59.0416 37.2982C57.4099 37.2982 55.9026 37.9946 54.856 39.1615L53.636 38.6562L50.1559 37.2147C50.6498 35.5616 50.9163 33.8113 50.9163 31.9998C50.9163 30.1883 50.6496 28.4381 50.1559 26.7849L53.636 25.3435L54.856 24.8381C55.9026 26.0051 57.4099 26.7014 59.0416 26.7014C59.7815 26.7014 60.5052 26.5571 61.1927 26.2722C64.0581 25.0852 65.4239 21.7883 64.2369 18.9227C63.3629 16.8128 61.3224 15.4493 59.0386 15.4493C58.2987 15.4493 57.575 15.5937 56.8875 15.8786C54.6292 16.814 53.3038 19.0598 53.4238 21.3722L52.1966 21.8805L48.7176 23.3215C47.0275 20.208 44.458 17.6383 41.3445 15.9483L42.7855 12.4694L43.2933 11.2436C43.3916 11.2487 43.4903 11.2517 43.5893 11.2517C45.8731 11.2517 47.9135 9.88836 48.7876 7.77836C49.9745 4.91287 48.6089 1.61587 45.7434 0.428874C45.0558 0.144375 44.3321 0 43.5923 0C41.3084 0 39.268 1.36337 38.3939 3.47337C37.4585 5.73161 38.1093 8.25698 39.8293 9.80723L39.3228 11.0301L37.8813 14.5102C36.2282 14.0165 34.4779 13.7498 32.6664 13.7498C30.8549 13.7498 29.1047 14.0165 27.4516 14.5102L26.0101 11.0301L25.5036 9.80723C27.2236 8.25698 27.8743 5.73161 26.9389 3.47324C26.0648 1.36337 24.0242 0 21.7404 0C21.0006 0 20.2768 0.144375 19.5893 0.429249C16.7239 1.61625 15.3582 4.91312 16.5452 7.77874C17.4192 9.88861 19.4597 11.2521 21.7434 11.2521C21.8424 11.2521 21.9411 11.2491 22.0394 11.244L22.5472 12.4697L23.9882 15.9487C20.8747 17.6388 18.3051 20.2083 16.6151 23.3218L13.1361 21.8808L11.909 21.3726C12.029 19.0602 10.7035 16.8143 8.44521 15.8788C7.75771 15.5941 7.03396 15.4497 6.29409 15.4497C4.01022 15.4497 1.96985 16.8131 1.09573 18.9231C-0.091147 21.7886 1.27448 25.0856 4.13997 26.2726C4.82747 26.5573 5.55122 26.7017 6.29109 26.7017C7.92284 26.7017 9.43009 26.0053 10.4767 24.8383L11.6967 25.3437L15.1768 26.7852C14.683 28.4383 14.4165 30.1886 14.4165 32.0001C14.4165 33.8116 14.6831 35.5618 15.1768 37.2149L11.6966 38.6562L10.4766 39.1615C9.42996 37.9946 7.92271 37.2982 6.29097 37.2982C5.55109 37.2982 4.82734 37.4426 4.13985 37.7274C1.27448 38.9144 -0.0912721 42.2113 1.09573 45.0769C1.96972 47.1868 4.01022 48.5503 6.29397 48.5503C7.03384 48.5503 7.75759 48.4059 8.44509 48.121C10.7033 47.1857 12.0288 44.9398 11.9088 42.6274L13.136 42.1192L16.6149 40.6782C18.3051 43.7917 20.8746 46.3613 23.9881 48.0513L22.5471 51.5303L22.0393 52.756C21.9409 52.7509 21.8423 52.7479 21.7433 52.7479C19.4594 52.7479 17.4191 54.1113 16.5449 56.2213C15.3581 59.0868 16.7237 62.3838 19.5892 63.5708C20.2767 63.8555 21.0004 63.9999 21.7403 63.9999C24.0242 63.9999 26.0646 62.6365 26.9387 60.5265C27.8741 58.2683 27.2233 55.7429 25.5033 54.1926L26.0098 52.9698L27.4513 49.4897C29.1044 49.9834 30.8547 50.25 32.6662 50.25C34.4777 50.25 36.2279 49.9834 37.881 49.4897L39.3225 52.9698L39.829 54.1926C38.109 55.7429 37.4583 58.2683 38.3937 60.5266C39.2677 62.6365 41.3082 64 43.5919 64C44.3318 64 45.0555 63.8556 45.743 63.5708C48.6084 62.3838 49.9741 59.0869 48.7871 56.2213C47.9131 54.1114 45.8726 52.7479 43.5889 52.7479C43.4899 52.7479 43.3913 52.7509 43.2929 52.756L42.7851 51.5303L41.3442 48.0513C44.4576 46.3612 47.0273 43.7917 48.7173 40.6782L52.1963 42.1192L53.4234 42.6274C53.3034 44.9398 54.6289 47.1857 56.8871 48.1212C57.5746 48.4059 58.2984 48.5503 59.0382 48.5503C61.3221 48.5503 63.3625 47.1869 64.2366 45.0769C65.4239 42.2113 64.0584 38.9143 61.1927 37.7273ZM32.6664 46.4998C24.6712 46.4998 18.1664 39.995 18.1664 31.9998C18.1664 24.0046 24.6712 17.4998 32.6664 17.4998C40.6617 17.4998 47.1664 24.0046 47.1664 31.9998C47.1664 39.995 40.6615 46.4998 32.6664 46.4998Z"
                fill="url(#paint0_linear_22728_11668)" />
            <path
                d="M32.6665 21.25C26.739 21.25 21.9165 26.0725 21.9165 32C21.9165 37.9275 26.739 42.75 32.6665 42.75C38.594 42.75 43.4165 37.9275 43.4165 32C43.4165 26.0725 38.594 21.25 32.6665 21.25ZM34.5415 36.125H30.7915V27.875H34.5415V36.125Z"
                fill="black" />
            <path
                d="M32.6665 21.25C26.739 21.25 21.9165 26.0725 21.9165 32C21.9165 37.9275 26.739 42.75 32.6665 42.75C38.594 42.75 43.4165 37.9275 43.4165 32C43.4165 26.0725 38.594 21.25 32.6665 21.25ZM34.5415 36.125H30.7915V27.875H34.5415V36.125Z"
                fill="url(#paint1_linear_22728_11668)" />
        </g>
        <defs>
            <linearGradient id="paint0_linear_22728_11668" x1="32.6663" y1="0" x2="32.6663" y2="64"
                gradientUnits="userSpaceOnUse">
                <stop stop-color="#EF8080" />
                <stop offset="1" stop-color="#F0145A" />
            </linearGradient>
            <linearGradient id="paint1_linear_22728_11668" x1="32.6665" y1="21.25" x2="32.6665"
                y2="42.75" gradientUnits="userSpaceOnUse">
                <stop stop-color="#EF8080" />
                <stop offset="1" stop-color="#F0145A" />
            </linearGradient>
            <clipPath id="clip0_22728_11668">
                <rect width="64" height="64" fill="white" transform="translate(0.666504)" />
            </clipPath>
        </defs>
    </symbol>

    <symbol ID="trust" viewBox="0 0 64 64" fill="none">
        <path d="M42.0059 56H23.0059V62H42.0059V56Z" fill="black" />
        <path d="M42.0059 56H23.0059V62H42.0059V56Z" fill="url(#paint0_linear_22728_11675)" />
        <path d="M15.1726 2.45168L1.73755 15.8867L5.27309 19.4223L18.7081 5.98722L15.1726 2.45168Z"
            fill="black" />
        <path d="M15.1726 2.45168L1.73755 15.8867L5.27309 19.4223L18.7081 5.98722L15.1726 2.45168Z"
            fill="url(#paint1_linear_22728_11675)" />
        <path d="M49.1127 2.31995L45.5771 5.85547L59.0122 19.2905L62.5477 15.755L49.1127 2.31995Z"
            fill="black" />
        <path d="M49.1127 2.31995L45.5771 5.85547L59.0122 19.2905L62.5477 15.755L49.1127 2.31995Z"
            fill="url(#paint2_linear_22728_11675)" />
        <path
            d="M44.5564 9.70843L41.8651 9.59436C41.089 9.48482 40.2981 9.55713 39.5548 9.80558C38.8115 10.054 38.1361 10.4718 37.5819 11.026L32.0775 16.5305L26.3239 10.7769C25.8244 10.2888 25.2011 9.94628 24.5214 9.78612C23.8416 9.62596 23.131 9.65426 22.4661 9.86798C21.8388 10.0587 21.1715 10.0755 20.5355 9.9164C19.8995 9.75732 19.3186 9.42842 18.8551 8.96483L18.0012 8.11095L7.39453 18.7175L9.12253 20.4455L9.00845 23.1368C8.89891 23.9128 8.97122 24.7037 9.21966 25.447C9.46811 26.1903 9.8859 26.8657 10.4401 27.4199L20.0525 37.0324C20.181 35.7705 20.7856 34.6051 21.7432 33.7734L18.7482 30.7785L19.4553 30.0714L22.5836 33.1996C23.027 32.9472 23.5068 32.7649 24.0059 32.6591V28.9651L22.2838 27.243L22.9908 26.5358L24.0059 27.5509V22.201C23.9948 21.3168 24.3086 20.4592 24.8879 19.791C25.4672 19.1228 26.2716 18.6904 27.1485 18.576C27.4792 18.544 27.8128 18.559 28.1393 18.6208L26.9098 17.3914L27.6169 16.6843L29.4131 18.4804C29.7312 17.864 30.2233 17.3547 30.8283 17.0154C31.4333 16.6762 32.1246 16.5221 32.8165 16.5721C33.6513 16.6697 34.4258 17.0562 35.0057 17.6647C35.5855 18.2733 35.9342 19.0655 35.9913 19.9041C36.5596 19.634 37.1894 19.5194 37.8165 19.5721C38.7075 19.6788 39.5273 20.1126 40.1166 20.7895C40.7059 21.4663 41.0229 22.3379 41.0059 23.2352V26.6591C41.916 26.8491 42.7551 27.289 43.4292 27.9293C44.1032 28.5696 44.5855 29.3851 44.822 30.2842L47.6105 27.4957L48.3176 28.2029L45.0023 31.5181C45.0024 31.5319 45.0059 31.5447 45.0059 31.5585V34.8785C45.9043 34.7845 46.7437 34.3864 47.3848 33.7501L54.225 26.9099C54.7131 26.4104 55.0556 25.7871 55.2158 25.1073C55.3759 24.4276 55.3476 23.7169 55.1339 23.0521C54.9431 22.4248 54.9264 21.7575 55.0855 21.1215C55.2445 20.4854 55.5735 19.9046 56.0371 19.441L56.8909 18.5871L46.2844 7.98047L44.5564 9.70843Z"
            fill="black" />
        <path
            d="M44.5564 9.70843L41.8651 9.59436C41.089 9.48482 40.2981 9.55713 39.5548 9.80558C38.8115 10.054 38.1361 10.4718 37.5819 11.026L32.0775 16.5305L26.3239 10.7769C25.8244 10.2888 25.2011 9.94628 24.5214 9.78612C23.8416 9.62596 23.131 9.65426 22.4661 9.86798C21.8388 10.0587 21.1715 10.0755 20.5355 9.9164C19.8995 9.75732 19.3186 9.42842 18.8551 8.96483L18.0012 8.11095L7.39453 18.7175L9.12253 20.4455L9.00845 23.1368C8.89891 23.9128 8.97122 24.7037 9.21966 25.447C9.46811 26.1903 9.8859 26.8657 10.4401 27.4199L20.0525 37.0324C20.181 35.7705 20.7856 34.6051 21.7432 33.7734L18.7482 30.7785L19.4553 30.0714L22.5836 33.1996C23.027 32.9472 23.5068 32.7649 24.0059 32.6591V28.9651L22.2838 27.243L22.9908 26.5358L24.0059 27.5509V22.201C23.9948 21.3168 24.3086 20.4592 24.8879 19.791C25.4672 19.1228 26.2716 18.6904 27.1485 18.576C27.4792 18.544 27.8128 18.559 28.1393 18.6208L26.9098 17.3914L27.6169 16.6843L29.4131 18.4804C29.7312 17.864 30.2233 17.3547 30.8283 17.0154C31.4333 16.6762 32.1246 16.5221 32.8165 16.5721C33.6513 16.6697 34.4258 17.0562 35.0057 17.6647C35.5855 18.2733 35.9342 19.0655 35.9913 19.9041C36.5596 19.634 37.1894 19.5194 37.8165 19.5721C38.7075 19.6788 39.5273 20.1126 40.1166 20.7895C40.7059 21.4663 41.0229 22.3379 41.0059 23.2352V26.6591C41.916 26.8491 42.7551 27.289 43.4292 27.9293C44.1032 28.5696 44.5855 29.3851 44.822 30.2842L47.6105 27.4957L48.3176 28.2029L45.0023 31.5181C45.0024 31.5319 45.0059 31.5447 45.0059 31.5585V34.8785C45.9043 34.7845 46.7437 34.3864 47.3848 33.7501L54.225 26.9099C54.7131 26.4104 55.0556 25.7871 55.2158 25.1073C55.3759 24.4276 55.3476 23.7169 55.1339 23.0521C54.9431 22.4248 54.9264 21.7575 55.0855 21.1215C55.2445 20.4854 55.5735 19.9046 56.0371 19.441L56.8909 18.5871L46.2844 7.98047L44.5564 9.70843Z"
            fill="url(#paint3_linear_22728_11675)" />
        <path
            d="M29.8804 21.6901C29.8044 21.0405 29.476 20.4468 28.966 20.0373C28.4559 19.6278 27.8053 19.4353 27.1546 19.5015C26.5234 19.5886 25.9463 19.9046 25.5329 20.3894C25.1194 20.8742 24.8986 21.4941 24.9124 22.1311V33.4885C23.8515 33.4885 22.8341 33.9099 22.0839 34.66C21.3338 35.4102 20.9124 36.4276 20.9124 37.4885V47.1619C20.9205 47.8603 21.1189 48.5432 21.4864 49.1371C21.8538 49.7311 22.3763 50.2135 22.9976 50.5325C23.576 50.8412 24.0597 51.3012 24.3969 51.8634C24.7342 52.4256 24.9123 53.0689 24.9124 53.7245V54.9321H39.9124V52.4885L41.896 50.6661C42.5222 50.1948 43.0303 49.5844 43.3803 48.8831C43.7302 48.1818 43.9123 47.4088 43.9124 46.6251V31.4885C43.9124 30.4276 43.4909 29.4102 42.7408 28.66C41.9906 27.9099 40.9732 27.4885 39.9124 27.4885V23.1659C39.9293 22.5187 39.7062 21.888 39.286 21.3955C38.8657 20.903 38.2781 20.5834 37.6362 20.4983C37.0063 20.4426 36.3787 20.6285 35.8807 21.0183C35.3826 21.408 35.0513 21.9725 34.9539 22.5974H35.4124V38.0407H34.4124V22.5974H34.9124V20.1659C34.9293 19.5187 34.7062 18.888 34.286 18.3955C33.8657 17.903 33.2781 17.5834 32.6362 17.4983C32.2904 17.4673 31.942 17.5086 31.613 17.6196C31.2841 17.7306 30.9819 17.909 30.7256 18.1432C30.4694 18.3775 30.2647 18.6625 30.1247 18.9802C29.9847 19.2979 29.9124 19.6413 29.9124 19.9885V21.6901H30.4124V37.1335H29.4124V21.6901H29.8804ZM25.3115 42.0407H24.3115V34.0407H25.3115V42.0407ZM39.4124 27.799H40.4124V38.2423H39.4124V27.799Z"
            fill="black" />
        <path
            d="M29.8804 21.6901C29.8044 21.0405 29.476 20.4468 28.966 20.0373C28.4559 19.6278 27.8053 19.4353 27.1546 19.5015C26.5234 19.5886 25.9463 19.9046 25.5329 20.3894C25.1194 20.8742 24.8986 21.4941 24.9124 22.1311V33.4885C23.8515 33.4885 22.8341 33.9099 22.0839 34.66C21.3338 35.4102 20.9124 36.4276 20.9124 37.4885V47.1619C20.9205 47.8603 21.1189 48.5432 21.4864 49.1371C21.8538 49.7311 22.3763 50.2135 22.9976 50.5325C23.576 50.8412 24.0597 51.3012 24.3969 51.8634C24.7342 52.4256 24.9123 53.0689 24.9124 53.7245V54.9321H39.9124V52.4885L41.896 50.6661C42.5222 50.1948 43.0303 49.5844 43.3803 48.8831C43.7302 48.1818 43.9123 47.4088 43.9124 46.6251V31.4885C43.9124 30.4276 43.4909 29.4102 42.7408 28.66C41.9906 27.9099 40.9732 27.4885 39.9124 27.4885V23.1659C39.9293 22.5187 39.7062 21.888 39.286 21.3955C38.8657 20.903 38.2781 20.5834 37.6362 20.4983C37.0063 20.4426 36.3787 20.6285 35.8807 21.0183C35.3826 21.408 35.0513 21.9725 34.9539 22.5974H35.4124V38.0407H34.4124V22.5974H34.9124V20.1659C34.9293 19.5187 34.7062 18.888 34.286 18.3955C33.8657 17.903 33.2781 17.5834 32.6362 17.4983C32.2904 17.4673 31.942 17.5086 31.613 17.6196C31.2841 17.7306 30.9819 17.909 30.7256 18.1432C30.4694 18.3775 30.2647 18.6625 30.1247 18.9802C29.9847 19.2979 29.9124 19.6413 29.9124 19.9885V21.6901H30.4124V37.1335H29.4124V21.6901H29.8804ZM25.3115 42.0407H24.3115V34.0407H25.3115V42.0407ZM39.4124 27.799H40.4124V38.2423H39.4124V27.799Z"
            fill="url(#paint4_linear_22728_11675)" />
        <defs>
            <linearGradient id="paint0_linear_22728_11675" x1="32.5059" y1="56" x2="32.5059" y2="62"
                gradientUnits="userSpaceOnUse">
                <stop stop-color="#EF8080" />
                <stop offset="1" stop-color="#F0145A" />
            </linearGradient>
            <linearGradient id="paint1_linear_22728_11675" x1="8.45507" y1="9.1692" x2="11.9906"
                y2="12.7047" gradientUnits="userSpaceOnUse">
                <stop stop-color="#EF8080" />
                <stop offset="1" stop-color="#F0145A" />
            </linearGradient>
            <linearGradient id="paint2_linear_22728_11675" x1="47.3449" y1="4.08771" x2="60.78"
                y2="17.5228" gradientUnits="userSpaceOnUse">
                <stop stop-color="#EF8080" />
                <stop offset="1" stop-color="#F0145A" />
            </linearGradient>
            <linearGradient id="paint3_linear_22728_11675" x1="32.1427" y1="7.98047" x2="32.1427"
                y2="37.0324" gradientUnits="userSpaceOnUse">
                <stop stop-color="#EF8080" />
                <stop offset="1" stop-color="#F0145A" />
            </linearGradient>
            <linearGradient id="paint4_linear_22728_11675" x1="32.4124" y1="17.4883" x2="32.4124"
                y2="54.9321" gradientUnits="userSpaceOnUse">
                <stop stop-color="#EF8080" />
                <stop offset="1" stop-color="#F0145A" />
            </linearGradient>
        </defs>
    </symbol>

    <symbol id="protection" viewBox="0 0 65 64" fill="none">
        <path
            d="M41.5652 37.6961C43.9174 37.6961 46.2431 38.2844 48.2912 39.3974C48.6631 39.5979 49.0044 39.8368 49.3529 40.0667C52.7142 33.4869 54.488 26.5278 54.488 19.7388C54.488 19.3573 54.488 18.9634 54.4758 18.5696C54.4512 18.0158 54.0573 17.5358 53.5034 17.4127C46.0696 15.7881 39.3373 11.7634 34.045 5.78193L33.2573 4.88342C33.0234 4.61268 32.6912 4.465 32.3342 4.465C31.9527 4.41579 31.6573 4.60036 31.4234 4.85885L30.2173 6.1881C25.1958 11.7142 18.8696 15.5296 11.9281 17.2281L11.1281 17.425C10.5865 17.5481 10.205 18.0281 10.1927 18.5819C9.74962 35.8865 19.965 48.3296 24.3712 52.8834C25.5641 54.1082 26.8941 55.3256 28.1588 56.3319C27.6844 54.9011 27.4113 53.3957 27.4113 51.8499C27.4113 44.0452 33.7605 37.6961 41.5652 37.6961Z"
            fill="url(#paint0_linear_22728_11681)" />
        <path
            d="M47.1156 41.5593C45.4172 40.6363 43.4972 40.1562 41.5649 40.1562C35.1156 40.1562 29.8726 45.3993 29.8726 51.8486C29.8726 54.027 30.4634 56.1562 31.5957 57.9778C33.7495 61.4609 37.4665 63.5409 41.5649 63.5409C48.0018 63.5409 53.2572 58.2978 53.2572 51.8486C53.2572 47.5409 50.9064 43.6024 47.1156 41.5593ZM47.5531 50.2918L38.4082 57.4084L35.2862 52.5249C34.9197 51.9522 35.0873 51.1914 35.66 50.8254C36.2334 50.4588 36.9948 50.6277 37.3596 51.1992L39.0272 53.8074L46.0411 48.3495C46.5765 47.9318 47.3505 48.0273 47.7682 48.5646C48.1859 49.1013 48.0891 49.8747 47.5531 50.2918Z"
            fill="url(#paint1_linear_22728_11681)" />
        <defs>
            <linearGradient id="paint0_linear_22728_11681" x1="32.3334" y1="4.45703" x2="32.3334"
                y2="56.3319" gradientUnits="userSpaceOnUse">
                <stop stop-color="#EF8080" />
                <stop offset="1" stop-color="#F0145A" />
            </linearGradient>
            <linearGradient id="paint1_linear_22728_11681" x1="41.5649" y1="40.1562" x2="41.5649"
                y2="63.5409" gradientUnits="userSpaceOnUse">
                <stop stop-color="#EF8080" />
                <stop offset="1" stop-color="#F0145A" />
            </linearGradient>
        </defs>
    </symbol>

    <symbol id="court" viewBox="0 0 65 64" fill="none">
        <path
            d="M41.0187 20.389C41.7507 21.121 42.9367 21.123 43.6687 20.389L46.2767 17.781C47.0077 17.049 47.0057 15.863 46.2767 15.13L39.6937 8.549C38.9637 7.817 37.7777 7.817 37.0457 8.549L34.4367 11.157C33.7067 11.889 33.7067 13.075 34.4367 13.805L41.0187 20.389Z"
            fill="url(#paint0_linear_22728_11687)" />
        <path
            d="M25.4325 36.2652C26.1635 36.9942 27.3495 36.9942 28.0805 36.2652L30.6895 33.6553C31.4215 32.9253 31.4215 31.7383 30.6895 31.0063L24.1065 24.4233C23.3755 23.6933 22.1895 23.6913 21.4575 24.4233L18.8495 27.0312C18.1175 27.7632 18.1195 28.9492 18.8495 29.6812L25.4325 36.2652Z"
            fill="url(#paint1_linear_22728_11687)" />
        <path
            d="M55.3146 36.8912L52.6676 34.2412C51.9336 33.5112 50.7506 33.5112 50.0196 34.2412L48.8586 35.4012L37.6536 24.1942L40.0806 21.7662L33.3476 15.0352L30.9196 17.4632L27.8276 20.5532L25.4536 22.9272L32.1856 29.6602L34.5626 27.2872L45.7656 38.4922L44.7176 39.5412C43.9856 40.2702 43.9836 41.4572 44.7176 42.1892L47.3646 44.8372C48.0986 45.5712 49.2836 45.5712 50.0146 44.8372L55.3136 39.5402C56.0466 38.8072 56.0466 37.6232 55.3146 36.8912Z"
            fill="url(#paint2_linear_22728_11687)" />
        <path
            d="M35.7435 44.9425C35.7435 43.7435 34.7715 42.7695 33.5705 42.7695H16.6025C15.4025 42.7695 14.4295 43.7435 14.4295 44.9425V48.4695H9.6665V55.8585H40.2245V48.4695H35.7435V44.9425Z"
            fill="url(#paint3_linear_22728_11687)" />
        <defs>
            <linearGradient id="paint0_linear_22728_11687" x1="40.3567" y1="8" x2="40.3567"
                y2="20.9388" gradientUnits="userSpaceOnUse">
                <stop stop-color="#EF8080" />
                <stop offset="1" stop-color="#F0145A" />
            </linearGradient>
            <linearGradient id="paint1_linear_22728_11687" x1="24.7699" y1="23.875" x2="24.7699"
                y2="36.812" gradientUnits="userSpaceOnUse">
                <stop stop-color="#EF8080" />
                <stop offset="1" stop-color="#F0145A" />
            </linearGradient>
            <linearGradient id="paint2_linear_22728_11687" x1="40.6586" y1="15.0352" x2="40.6586"
                y2="45.3877" gradientUnits="userSpaceOnUse">
                <stop stop-color="#EF8080" />
                <stop offset="1" stop-color="#F0145A" />
            </linearGradient>
            <linearGradient id="paint3_linear_22728_11687" x1="24.9455" y1="42.7695" x2="24.9455"
                y2="55.8585" gradientUnits="userSpaceOnUse">
                <stop stop-color="#EF8080" />
                <stop offset="1" stop-color="#F0145A" />
            </linearGradient>
        </defs>
    </symbol>


</svg>